<svg xmlns="http://www.w3.org/2000/svg" viewBox="0 0 48 32"><g fill="none" fill-rule="evenodd"><rect width="47" height="31" x=".5" y=".5" fill="#FFF" stroke="#CBCBCB" stroke-opacity=".5" rx="2"/><path fill="#006FCF" d="M31.057 10.396l.726-1.92H35V5H13v22h22v-3.477h-3.061l-1.142-1.297-1.142 1.297h-8.613V16.57h-2.853l3.58-8.041h3.476l.83 1.816V8.527h4.306l.676 1.869zm-2.387 1.297v-.777l.31.777 1.453 3.84h1.35l1.453-3.84.259-.777v4.564H35V9.617h-2.49l-1.141 2.958-.312.83-.312-.83-1.141-2.957h-2.491v5.862h1.557v-3.787zm-3.217 3.787h1.712l-2.593-5.863h-2.025l-2.594 5.863h1.712l.466-1.142h2.855l.467 1.143zm-2.18-3.839l.31-.725.313.726.623 1.505h-1.816l.57-1.506zm-1.037 4.93v5.863h4.877V21.19h-3.424V20.15h3.32v-1.243h-3.32v-1.04h3.424v-1.245h-4.877v-.051zm10.377 5.81h1.92l-2.75-2.905 2.75-2.905h-1.92l-1.764 1.92-1.765-1.92h-1.971l2.75 2.957-2.75 2.907h1.868l1.764-1.92 1.868 1.866zm.726-2.905l1.66 1.713v-3.373l-1.66 1.66z"/></g></svg>