<svg xmlns="http://www.w3.org/2000/svg" viewBox="0 0 48 32"><g fill="none" fill-rule="evenodd"><rect width="47" height="31" x=".5" y=".5" fill="#FFF" stroke="#CBCBCB" stroke-opacity=".5" rx="2"/><path fill="#0067B3" d="M37 6a2 2 0 012 2v16l-.005.15a1.996 1.996 0 01-.703 1.377L9.709 6.472A1.992 1.992 0 0111 6z"/><path fill="#F9A51A" d="M9.313 16H24v9.688z"/><path fill="#EC1C24" d="M9.313 21H16.5v4.688z"/><path fill="#FFF" fill-rule="nonzero" d="M34.063 8.5h-3.188v.813h1.063v2.937H33V9.312h1.063V8.5zm-8.626 2.125h1.875v-.813h-1.875v-.5h2V8.5H24.5v3.75h3.063v-.938h-2.125v-.687zM29.313 8.5h-.937v3.75h2.688v-.938h-1.75V8.5zm7 0H35.25l-1.313 3.75h.938l.25-.688H36.5l.25.688h.938L36.312 8.5zm-.937 2.25l.375-1.188.375 1.188h-.75zm-13.5-2.25H20.25v3.75h1.625c1.188 0 1.875-.688 1.875-1.875-.063-1.188-.688-1.875-1.875-1.875zm.063 2.813h-.813v-2h.563c.687 0 1.062.25 1.062 1.062 0 .563-.25.875-.813.938z"/></g></svg>