<svg xmlns="http://www.w3.org/2000/svg" viewBox="0 0 48 32">
  <g fill="none" fill-rule="evenodd">
    <rect width="47" height="31" x=".5" y=".5" fill="#FFF" stroke="#CBCBCB" stroke-opacity=".5" rx="2"/>
    <g fill-rule="nonzero" transform="translate(8 7)">
      <rect width="32.4" height="18" fill="#FFB3C7" rx="4.321"/>
      <path fill="#0A0B09" d="M29.3712429,10.545336 C28.9473429,10.545336 28.6037229,10.8920736 28.6037229,11.31984 C28.6037229,11.74752 28.9473429,12.094344 29.3712429,12.094344 C29.7951357,12.094344 30.1388349,11.7475416 30.1388349,11.31984 C30.1388349,10.8920448 29.7951501,10.545336 29.3712429,10.545336 Z M26.8459869,9.9465408 C26.8459869,9.3609072 26.3499285,8.8862688 25.7379789,8.8862688 C25.1260293,8.8862688 24.6298989,9.3609288 24.6298989,9.9465408 C24.6298989,10.5321816 25.1259645,11.0069568 25.7379789,11.0069568 C26.3499933,11.0069568 26.8459869,10.5321816 26.8459869,9.9465408 Z M26.8501015,7.8857568 L28.0729495,7.8857568 L28.0729495,12.0071808 L26.8501015,12.0071808 L26.8501015,11.743776 C26.5046311,11.98152 26.0876215,12.1212792 25.6378375,12.1212792 C24.4476055,12.1212792 23.4826615,11.1476232 23.4826615,9.9465192 C23.4826615,8.7454152 24.4476055,7.7718312 25.6378375,7.7718312 C26.0876215,7.7718312 26.5046455,7.9115832 26.8501015,8.1493992 L26.8501015,7.8857424 L26.8501015,7.8857568 Z M17.0638615,8.4226032 L17.0638615,7.8858144 L15.8118535,7.8858144 L15.8118535,12.0071664 L17.0666695,12.0071664 L17.0666695,10.0829664 C17.0666695,9.433764 17.7639823,9.0848304 18.2478295,9.0848304 C18.2527844,9.0848304 18.2574098,9.08531115 18.2623648,9.08537234 L18.2623648,7.88614034 C17.7657592,7.88614034 17.3090128,8.10070034 17.0638528,8.42268434 L17.0638615,8.4226032 Z M13.9451095,9.9465552 C13.9451095,9.3609216 13.4489935,8.8862832 12.8370295,8.8862832 C12.2250943,8.8862832 11.7289495,9.3609432 11.7289495,9.9465552 C11.7289495,10.532196 12.2250655,11.0069712 12.8370295,11.0069712 C13.4490151,11.0069712 13.9451095,10.532196 13.9451095,9.9465552 Z M13.9491549,7.8857712 L15.1720749,7.8857712 L15.1720749,12.0071952 L13.9491549,12.0071952 L13.9491549,11.7437904 C13.6036845,11.9815344 13.1866749,12.1212936 12.7369629,12.1212936 C11.5466589,12.1212936 10.5817149,11.1476376 10.5817149,9.9465336 C10.5817149,8.7454296 11.5466589,7.7718456 12.7369629,7.7718456 C13.1867037,7.7718456 13.6036989,7.9115976 13.9491549,8.1494136 L13.9491549,7.8857568 L13.9491549,7.8857712 Z M21.3097149,7.77492 C20.8212237,7.77492 20.3588829,7.927956 20.0497869,8.350164 L20.0497869,7.886016 L18.8321949,7.886016 L18.8321949,12.007224 L20.0647629,12.007224 L20.0647629,9.841392 C20.0647629,9.2146608 20.4812613,8.907768 20.9827629,8.907768 C21.5202141,8.907768 21.8291949,9.2317392 21.8291949,9.832896 L21.8291949,12.007224 L23.0506029,12.007224 L23.0506029,9.386352 C23.0506029,8.42724 22.2948909,7.774992 21.3097149,7.774992 L21.3097149,7.77492 Z M8.80043491,12.007224 L10.0803789,12.007224 L10.0803789,6.049152 L8.80043491,6.049152 L8.80043491,12.007224 L8.80043491,12.007224 Z M3.17788291,12.0088498 L4.53321091,12.0088498 L4.53321091,6.04804183 L3.17788291,6.04804183 L3.17788291,12.0088498 Z M7.91836291,6.04802743 C7.91836291,7.33849783 7.41998611,8.53895383 6.53193091,9.43124983 L8.40537091,12.0090658 L6.73137091,12.0090658 L4.69535491,9.20754583 L5.22081811,8.81045143 C6.09223411,8.15176663 6.59205811,7.14494743 6.59205811,6.04802743 L7.91837011,6.04802743 L7.91836291,6.04802743 Z"/>
    </g>
  </g>
</svg>
