<svg xmlns="http://www.w3.org/2000/svg" viewBox="0 0 48 32"><g fill="none" fill-rule="evenodd"><rect width="47" height="31" x=".5" y=".5" fill="#FFF" stroke="#CBCBCB" stroke-opacity=".5" rx="2"/><path fill="#FF5F00" d="M20.062 23.075h7.874V8.925h-7.874z"/><path fill="#EB001B" d="M20.563 16.001a8.981 8.981 0 013.438-7.076c-3.909-3.071-9.566-2.393-12.636 1.514-3.072 3.909-2.394 9.566 1.514 12.636a9 9 0 0011.122 0 8.982 8.982 0 01-3.438-7.074"/><path fill="#F79E1B" d="M38.56 16.001A8.998 8.998 0 0124 23.075c3.908-3.07 4.585-8.727 1.515-12.636A9.005 9.005 0 0024 8.925a8.999 8.999 0 0114.56 7.074v.002z"/></g></svg>