<svg xmlns="http://www.w3.org/2000/svg" viewBox="0 0 48 32"><g fill="none" fill-rule="evenodd"><rect width="47" height="31" x=".5" y=".5" fill="#FFF" stroke="#CBCBCB" stroke-opacity=".5" rx="2"/><path fill="#253B80" d="M20.7 24.4l.3-2h-4l2.3-14.6s0-.1.1-.1H25.1c1.9 0 3.1.4 3.8 1.1.3.4.5.7.6 1.1.1.4.1.9 0 1.6v.4l.3.2c.3.1.5.3.6.5.3.3.4.7.5 1.2.1.5 0 1-.1 1.7s-.4 1.4-.7 1.9c-.3.5-.7.9-1.1 1.2-.4.3-.9.5-1.5.7-.5.1-1.2.2-1.8.2h-.3c-.3 0-.6.1-.9.3-.2.2-.4.5-.4.8v.2l-.6 3.5v.2H20.7v-.1z"/><path fill="#179BD7" d="M30.1 11.6c0 .1 0 .2-.1.3-.7 3.8-3.2 5.1-6.4 5.1h-1.7c-.4 0-.7.3-.8.7l-.8 5.3-.2 1.5c-.1.3.1.5.4.5h2.9c.3 0 .6-.2.7-.6v-.1l.5-3.5v-.2c.2-.3.4-.6.8-.6h.4c2.8 0 5-1.1 5.7-4.5.3-1.4.1-2.5-.6-3.4-.2-.2-.5-.4-.8-.5"/><path fill="#222D65" d="M29.3 11.3c-.1 0-.2-.1-.3-.1-.1 0-.2-.1-.4-.1-.4-.1-.9-.1-1.4-.1h-4.4c-.1 0-.2 0-.3.1-.2.1-.4.3-.4.5l-.9 5.9v.2c0-.4.3-.7.7-.7h1.6c3.2 0 5.7-1.3 6.5-5.1 0-.1 0-.2.1-.3l-.6-.3h-.2"/><path fill="#253B80" d="M22.1 11.6c0-.2.2-.4.4-.5.1-.1.2-.1.3-.1h4.4c.5 0 1 0 1.4.1.1 0 .2 0 .4.1.1 0 .2.1.3.1.1 0 .1 0 .2.1l.6.3c.2-1.4 0-2.4-.8-3.2C28.5 7.4 27 7 25.1 7h-5.6c-.4 0-.7.3-.8.7l-2.3 14.8c0 .3.2.6.5.6h3.5l.9-5.5.8-6z"/></g></svg>