<svg width="200" height="200" viewBox="0 0 200 200" fill="none" xmlns="http://www.w3.org/2000/svg">
<path d="M34.4828 34.4828V13.7931H13.7931V34.4828H34.4828Z" fill="#111111"/>
<path fill-rule="evenodd" clip-rule="evenodd" d="M48.2759 48.2759V0H0V48.2759H48.2759ZM6.89655 6.89655H41.3793V41.3793H6.89655V6.89655Z" fill="#111111"/>
<path d="M117.241 62.069V55.1724H124.138V62.069H117.241Z" fill="#111111"/>
<path d="M131.034 34.4828H124.138V48.2759H131.034V34.4828Z" fill="#111111"/>
<path d="M151.724 158.621H158.621V151.724H151.724V158.621Z" fill="#111111"/>
<path fill-rule="evenodd" clip-rule="evenodd" d="M62.069 6.89655H68.9655V13.7931H75.8621V20.6897H62.069V13.7931H55.1724V55.1724H62.069V62.069H55.1724V68.9655H62.069V82.7586H55.1724V89.6552H62.069V96.5517H75.8621V103.448H62.069V117.241H75.8621V124.138H68.9655V137.931H89.6552V124.138H82.7586V117.241H89.6552V110.345H96.5517V117.241H103.448V124.138H124.138V137.931H117.241V131.034H110.345V137.931H117.241V144.828H131.034V151.724H124.138V158.621H131.034V165.517H137.931V172.414H172.414V158.621H186.207V151.724H200V137.931H193.103V131.034H186.207V110.345H193.103V103.448H186.207V96.5517H172.414V89.6552H186.207V82.7586H193.103V75.8621H186.207V82.7586H179.31V75.8621H172.414V89.6552H165.517V110.345H158.621V117.241H144.828V131.034H137.931V144.828H131.034V124.138H137.931V110.345H151.724V103.448H131.034V96.5517H158.621V89.6552H131.034V96.5517H124.138V103.448H131.034V110.345H117.241V117.241H110.345V103.448H117.241V96.5517H110.345V89.6552H124.138V82.7586H137.931V75.8621H151.724V68.9655H172.414V62.069H186.207V55.1724H151.724V62.069H137.931V55.1724H144.828V27.5862H137.931V20.6897H144.828V6.89655H137.931V0H103.448V6.89655H117.241V13.7931H110.345V27.5862H89.6552V41.3793H82.7586V55.1724H96.5517V62.069H103.448V68.9655H117.241V75.8621H110.345V89.6552H89.6552V82.7586H82.7586V75.8621H68.9655V55.1724H75.8621V41.3793H68.9655V48.2759H62.069V27.5862H68.9655V34.4828H75.8621V20.6897H89.6552V6.89655H82.7586V0H62.069V6.89655ZM117.241 62.069V68.9655H124.138V62.069H131.034V48.2759H137.931V34.4828H131.034V27.5862H110.345V34.4828H117.241V48.2759H110.345V41.3793H103.448V48.2759H96.5517V41.3793H89.6552V48.2759H96.5517V55.1724H103.448V48.2759H110.345V62.069H117.241ZM117.241 75.8621H124.138V82.7586H117.241V75.8621ZM117.241 13.7931H124.138V6.89655H137.931V20.6897H117.241V13.7931ZM137.931 75.8621H131.034V68.9655H137.931V75.8621ZM172.414 110.345H165.517V117.241H172.414V144.828H179.31V137.931H186.207V131.034H179.31V117.241H172.414V110.345ZM172.414 110.345V103.448H186.207V110.345H172.414ZM131.034 124.138H124.138V117.241H131.034V124.138ZM96.5517 110.345V103.448H103.448V110.345H96.5517ZM82.7586 96.5517H89.6552V110.345H75.8621V103.448H82.7586V96.5517ZM75.8621 89.6552H82.7586V96.5517H75.8621V89.6552ZM75.8621 89.6552H68.9655V82.7586H75.8621V89.6552ZM82.7586 6.89655V13.7931H75.8621V6.89655H82.7586ZM158.621 124.138H165.517V137.931H158.621V124.138ZM144.828 144.828H165.517V165.517H144.828V144.828Z" fill="#111111"/>
<path d="M179.31 172.414H186.207V165.517H179.31V172.414Z" fill="#111111"/>
<path d="M193.103 172.414H200V158.621H193.103V172.414Z" fill="#111111"/>
<path fill-rule="evenodd" clip-rule="evenodd" d="M55.1724 172.414H62.069V165.517H75.8621V172.414H82.7586V144.828H55.1724V131.034H48.2759V124.138H20.6897V117.241H34.4828V110.345H20.6897V103.448H27.5862V89.6552H48.2759V82.7586H34.4828V68.9655H41.3793V75.8621H48.2759V68.9655H41.3793V62.069H48.2759V55.1724H13.7931V62.069H6.89655V55.1724H0V75.8621H6.89655V68.9655H13.7931V75.8621H20.6897V82.7586H27.5862V89.6552H20.6897V96.5517H13.7931V89.6552H0V110.345H6.89655V117.241H0V144.828H6.89655V117.241H13.7931V131.034H20.6897V137.931H13.7931V144.828H34.4828V137.931H41.3793V144.828H55.1724V151.724H75.8621V158.621H55.1724V172.414ZM13.7931 110.345V103.448H6.89655V110.345H13.7931ZM13.7931 110.345V117.241H20.6897V110.345H13.7931ZM20.6897 68.9655V75.8621H27.5862V68.9655H34.4828V62.069H27.5862V68.9655H20.6897ZM20.6897 68.9655V62.069H13.7931V68.9655H20.6897ZM41.3793 137.931V131.034H48.2759V137.931H41.3793Z" fill="#111111"/>
<path fill-rule="evenodd" clip-rule="evenodd" d="M96.5517 172.414H110.345V165.517H117.241V172.414H124.138V165.517H117.241V151.724H110.345V144.828H89.6552V165.517H96.5517V172.414ZM96.5517 165.517V158.621H110.345V165.517H96.5517Z" fill="#111111"/>
<path d="M186.207 34.4828V13.7931H165.517V34.4828H186.207Z" fill="#111111"/>
<path fill-rule="evenodd" clip-rule="evenodd" d="M200 48.2759V0H151.724V48.2759H200ZM158.621 6.89655H193.103V41.3793H158.621V6.89655Z" fill="#111111"/>
<path d="M96.5517 20.6897H103.448V13.7931H96.5517V20.6897Z" fill="#111111"/>
<path d="M193.103 68.9655H200V62.069H193.103V68.9655Z" fill="#111111"/>
<path d="M96.5517 82.7586H103.448V75.8621H96.5517V82.7586Z" fill="#111111"/>
<path d="M158.621 82.7586H165.517V75.8621H158.621V82.7586Z" fill="#111111"/>
<path d="M193.103 96.5517H200V89.6552H193.103V96.5517Z" fill="#111111"/>
<path d="M41.3793 103.448H48.2759V96.5517H41.3793V103.448Z" fill="#111111"/>
<path d="M41.3793 117.241H48.2759V110.345H41.3793V117.241Z" fill="#111111"/>
<path d="M193.103 124.138H200V117.241H193.103V124.138Z" fill="#111111"/>
<path d="M96.5517 137.931H103.448V131.034H96.5517V137.931Z" fill="#111111"/>
<path d="M34.4828 186.207V165.517H13.7931V186.207H34.4828Z" fill="#111111"/>
<path fill-rule="evenodd" clip-rule="evenodd" d="M48.2759 200V151.724H0V200H48.2759ZM6.89655 158.621H41.3793V193.103H6.89655V158.621Z" fill="#111111"/>
<path d="M139.285 189.759C139.285 191.931 141.251 193.586 143.527 193.586C145.803 193.586 147.665 191.828 147.768 189.759C147.768 187.483 145.803 185.828 143.527 185.828C141.148 185.828 139.285 187.483 139.285 189.759Z" fill="#111111"/>
<path d="M108.665 186.345L106.803 190.379H110.423L108.665 186.345Z" fill="#111111"/>
<path d="M132.561 188.931H128.113V186.034H132.561C133.596 186.034 134.113 186.448 134.113 187.483C134.113 188.414 133.596 188.931 132.561 188.931Z" fill="#111111"/>
<path d="M153.665 188.931H157.492C158.423 188.931 159.044 188.414 159.044 187.483C159.044 186.448 158.527 186.034 157.492 186.034H153.665V188.931Z" fill="#111111"/>
<path d="M191.63 188.931H187.803V186.034H191.63C192.665 186.034 193.182 186.448 193.182 187.483C193.182 188.414 192.561 188.931 191.63 188.931Z" fill="#111111"/>
<path fill-rule="evenodd" clip-rule="evenodd" d="M200 179.31H55.1724V200H200V179.31ZM137.837 189.552C137.837 186.448 140.527 184.172 143.527 184.172C146.63 184.172 149.216 186.552 149.216 189.759C149.216 192.759 146.63 195.138 143.527 195.138C140.32 195.138 137.837 192.655 137.837 189.552ZM67.9061 184.483V192.345L61.6992 184.483H60.251V194.828H61.6992V186.965H61.8027L67.9061 194.828H69.4579V184.483H67.9061ZM73.3889 194.828V184.483H80.8371V186.034H74.9406V188.931H80.0096V190.379H74.9406V193.379H80.8371V194.828H73.3889ZM87.1475 194.828V186.034H83.4234V184.483H92.2165V186.034H88.5958V194.828H87.1475ZM94.4924 188.931H100.803V190.483H94.4924V188.931ZM114.044 194.828H112.389L111.147 191.828H106.182L104.734 194.828H103.078L107.837 184.483H109.492L114.044 194.828ZM116.423 188.931H122.734V190.483H116.423V188.931ZM132.561 184.483H126.561V194.828H128.113V190.483H132.665C134.527 190.483 135.665 189.345 135.665 187.483C135.665 185.621 134.423 184.483 132.561 184.483ZM152.113 184.483H157.492C159.354 184.483 160.492 185.621 160.492 187.483C160.492 188.88 159.852 189.869 158.745 190.276C159.504 190.837 160.062 191.769 160.699 192.862C161.113 193.586 161.63 194.207 162.354 194.828H160.389L158.941 192.759C157.596 190.69 156.975 190.483 156.147 190.483H153.665V194.828H152.113V184.483ZM168.458 186.034V194.828H166.906V186.034H163.285V184.483H172.078V186.034H168.458ZM174.975 184.483V194.828H182.423V193.379H176.527V190.379H181.596V188.931H176.527V186.034H182.423V184.483H174.975ZM191.63 184.483H186.251V194.828H187.803V190.483H190.285C191.113 190.483 191.734 190.69 193.079 192.759L194.527 194.828H196.492C195.768 194.207 195.251 193.586 194.837 192.862C194.2 191.769 193.642 190.837 192.883 190.276C193.99 189.869 194.63 188.88 194.63 187.483C194.63 185.621 193.492 184.483 191.63 184.483Z" fill="#111111"/>
</svg>
