<svg xmlns="http://www.w3.org/2000/svg" viewBox="0 0 48 32">
  <g fill="none" fill-rule="evenodd">
    <rect width="47" height="31" x=".5" y=".5" fill="#FFF" stroke="#CBCBCB" stroke-opacity=".5" rx="2"/>
    <g transform="translate(8 6)">
      <path fill="#DF3232" fill-rule="nonzero" d="M6.22104434,0 L14.1604383,0 C15.2664989,0 15.9634686,0.909090909 15.6907413,2.01515152 L11.9937716,17.8939394 C11.7361959,19 10.6301353,19.9090909 9.50892313,19.9090909 L1.58468071,19.9090909 C0.478620102,19.9090909 -0.20319808,19 0.054377678,17.8939394 L3.75134737,2.01515152 C4.00892313,0.909090909 5.11498374,0 6.22104434,0"/>
      <path fill="#004889" fill-rule="nonzero" d="M13.5089231,0 L22.6452868,0 C23.7513474,0 23.2513474,0.909090909 22.9937716,2.01515152 L19.2968019,17.8939394 C19.0392262,19 19.1149837,19.9090909 18.0089231,19.9090909 L8.8725595,19.9090909 C7.76649889,19.9090909 7.06952919,19 7.32710495,17.8939394 L11.0240746,2.01515152 C11.2816504,0.909090909 12.387711,0 13.5089231,0"/>
      <path fill="#008089" fill-rule="nonzero" d="M22.2816504,0 L30.2210443,0 C31.327105,0 32.0240746,0.909090909 31.7664989,2.01515152 L28.0543777,17.8939394 C27.7968019,19 26.6907413,19.9090909 25.5695292,19.9090909 L17.6301353,19.9090909 C16.5240746,19.9090909 15.827105,19 16.0846807,17.8939394 L19.7816504,2.01515152 C20.0543777,0.909090909 21.1604383,0 22.2816504,0"/>
      <path fill="#FFF" d="M20.9483171,14.9393939 L21.6907413,14.9393939 L21.918014,14.2272727 L21.1604383,14.2272727 L20.9483171,14.9393939 Z M21.5543777,12.9393939 L21.2968019,13.7878788 C21.2968019,13.7878788 21.5846807,13.6363636 21.7361959,13.5909091 C21.887711,13.5606061 22.1301353,13.530303 22.1301353,13.530303 L22.3119534,12.9393939 L21.5543777,12.9393939 L21.5543777,12.9393939 Z M21.918014,11.7272727 L21.6755898,12.5454545 C21.6755898,12.5454545 21.9483171,12.4242424 22.0998322,12.3787879 C22.2513474,12.3333333 22.4786201,12.3181818 22.4786201,12.3181818 L22.6604383,11.7272727 L21.918014,11.7272727 Z M23.5846807,11.7272727 L22.6149837,14.9242424 L22.8725595,14.9242424 L22.6755898,15.5909091 L22.418014,15.5909091 L22.357408,15.8030303 L21.4331656,15.8030303 L21.4937716,15.5909091 L19.6149837,15.5909091 L19.8119534,14.9848485 L19.9937716,14.9848485 L20.9786201,11.7272727 L21.1755898,11.0757576 L22.1149837,11.0757576 L22.0089231,11.4090909 C22.0089231,11.4090909 22.2664989,11.2272727 22.4937716,11.1666667 C22.7361959,11.1060606 24.0998322,11.0757576 24.0998322,11.0757576 L23.9028625,11.7272727 L23.5846807,11.7272727 L23.5846807,11.7272727 Z"/>
      <path fill="#FFF" fill-rule="nonzero" d="M23.9937716 11.0757576L24.9937716 11.0757576 25.0089231 11.4545455C25.0089231 11.5151515 25.0543777 11.5454545 25.1755898 11.5454545L25.387711 11.5454545 25.2058928 12.1666667 24.6604383 12.1666667C24.1907413 12.1969697 24.0089231 12 24.0240746 11.7727273L23.9937716 11.0757576zM24.1301353 14L23.1755898 14 23.3422565 13.4545455 24.4331656 13.4545455 24.5846807 12.9545455 23.5089231 12.9545455 23.6907413 12.3333333 26.6907413 12.3333333 26.5089231 12.9545455 25.5089231 12.9545455 25.3422565 13.4545455 26.357408 13.4545455 26.1907413 14 25.0998322 14 24.9028625 14.2272727 25.3422565 14.2272727 25.4483171 14.9242424C25.4634686 15 25.4634686 15.030303 25.4786201 15.0606061 25.4937716 15.0909091 25.6301353 15.1060606 25.7058928 15.1060606L25.8422565 15.1060606 25.6452868 15.7727273 25.3119534 15.7727273C25.2513474 15.7727273 25.1755898 15.7727273 25.0695292 15.7727273 24.9634686 15.7575758 24.9028625 15.6969697 24.827105 15.6666667 24.7664989 15.6363636 24.6755898 15.5606061 24.6452868 15.4242424L24.5392262 14.7272727 24.0392262 15.4090909C23.887711 15.6212121 23.6755898 15.7878788 23.3119534 15.7878788L22.6149837 15.7878788 22.7968019 15.1818182 23.0695292 15.1818182C23.1452868 15.1818182 23.2058928 15.1515152 23.2664989 15.1212121 23.3119534 15.1060606 23.357408 15.0757576 23.418014 15L24.1301353 14zM13.6604383 12.5L16.1907413 12.5 16.0089231 13.1060606 14.9937716 13.1060606 14.8422565 13.6212121 15.8725595 13.6212121 15.6907413 14.2424242 14.6604383 14.2424242 14.4028625 15.0757576C14.3725595 15.1666667 14.6452868 15.1818182 14.7513474 15.1818182L15.2664989 15.1060606 15.0543777 15.8030303 13.887711 15.8030303C13.7968019 15.8030303 13.7210443 15.7878788 13.6149837 15.7727273 13.5240746 15.7575758 13.4786201 15.6969697 13.4331656 15.6363636 13.387711 15.5606061 13.327105 15.5151515 13.3725595 15.3636364L13.7058928 14.2575758 13.1301353 14.2575758 13.3119534 13.6212121 13.887711 13.6212121 14.0392262 13.1060606 13.4634686 13.1060606 13.6604383 12.5zM15.357408 11.4090909L16.387711 11.4090909 16.2058928 12.0454545 14.7816504 12.0454545 14.6301353 12.1818182C14.5695292 12.2424242 14.5392262 12.2272727 14.4483171 12.2575758 14.3725595 12.3030303 14.2058928 12.3787879 13.9786201 12.3787879L13.5240746 12.3787879 13.7058928 11.7727273 13.8422565 11.7727273C13.9634686 11.7727273 14.0392262 11.7575758 14.0695292 11.7424242 14.1149837 11.7121212 14.1604383 11.6515152 14.2210443 11.5454545L14.4786201 11.0757576 15.5089231 11.0757576 15.357408 11.4090909z"/>
      <path fill="#FFF" d="M17.357408,12.4545455 C17.357408,12.4545455 17.6452868,12.1969697 18.1301353,12.1060606 C18.2361959,12.0909091 18.9331656,12.0909091 18.9331656,12.0909091 L19.0392262,11.7424242 L17.5695292,11.7424242 L17.357408,12.4545455 Z M18.7210443,12.7121212 L17.2664989,12.7121212 L17.1755898,13 L18.4331656,13 C18.5846807,12.9848485 18.6149837,13 18.6301353,13 L18.7210443,12.7121212 Z M16.8422565,11.0757576 L17.7210443,11.0757576 L17.5998322,11.5151515 C17.5998322,11.5151515 17.8725595,11.2878788 18.0695292,11.2121212 C18.2664989,11.1363636 18.7058928,11.0757576 18.7058928,11.0757576 L20.1301353,11.0757576 L19.6452868,12.6969697 C19.5543777,12.969697 19.4634686,13.1515152 19.4028625,13.2424242 C19.3422565,13.3333333 19.2816504,13.3939394 19.1604383,13.469697 C19.0392262,13.530303 18.9331656,13.5757576 18.827105,13.5757576 C18.7361959,13.5909091 18.5846807,13.5909091 18.387711,13.5909091 L17.0089231,13.5909091 L16.6149837,14.8787879 C16.5846807,15 16.5543777,15.0606061 16.5846807,15.1060606 C16.5998322,15.1363636 16.6452868,15.1666667 16.7210443,15.1666667 L17.327105,15.1060606 L17.1149837,15.8181818 L16.4331656,15.8181818 C16.2210443,15.8181818 16.0543777,15.8181818 15.9483171,15.8030303 C15.8422565,15.7878788 15.7361959,15.8030303 15.6604383,15.7424242 C15.5998322,15.6818182 15.5089231,15.6060606 15.5089231,15.530303 C15.5089231,15.4545455 15.5392262,15.3484848 15.5846807,15.1818182 L16.8422565,11.0757576 Z"/>
      <path fill="#FFF" fill-rule="nonzero" d="M19.418014 13.6969697L19.3422565 14.0909091C19.3119534 14.2121212 19.2816504 14.3030303 19.1755898 14.3787879 19.0846807 14.4545455 18.9634686 14.5454545 18.7058928 14.5454545L18.2210443 14.5757576 18.2210443 15.0151515C18.2210443 15.1363636 18.2513474 15.1212121 18.2664989 15.1515152 18.2968019 15.1818182 18.3119534 15.1818182 18.327105 15.1969697L18.4786201 15.1818182 18.9483171 15.1515152 18.7513474 15.8030303 18.2058928 15.8030303C17.827105 15.8030303 17.5543777 15.7878788 17.4634686 15.7121212 17.3725595 15.6515152 17.357408 15.5757576 17.357408 15.4545455L17.387711 13.7424242 18.2513474 13.7424242 18.2361959 14.0909091 18.4483171 14.0909091C18.5089231 14.0909091 18.5695292 14.0757576 18.5998322 14.0606061 18.6301353 14.0454545 18.6452868 14.0151515 18.6604383 13.969697L18.7513474 13.6969697 19.418014 13.6969697 19.418014 13.6969697zM7.16043828 5.07575758C7.13013525 5.21212121 6.58468071 7.75757576 6.58468071 7.75757576 6.46346859 8.27272727 6.3725595 8.63636364 6.08468071 8.87878788 5.91801404 9.01515152 5.72104434 9.07575758 5.49377162 9.07575758 5.13013525 9.07575758 4.91801404 8.89393939 4.88771101 8.56060606L4.8725595 8.43939394C4.8725595 8.43939394 4.9786201 7.74242424 4.9786201 7.74242424 4.9786201 7.74242424 5.55437768 5.42424242 5.66043828 5.12121212 5.66043828 5.10606061 5.6755898 5.09090909 5.6755898 5.09090909 4.55437768 5.10606061 4.34225647 5.09090909 4.34225647 5.07575758 4.34225647 5.10606061 4.31195344 5.24242424 4.31195344 5.24242424L3.72104434 7.84848485 3.6755898 8.07575758 3.58468071 8.8030303C3.58468071 9.01515152 3.63013525 9.1969697 3.70589283 9.34848485 3.9786201 9.81818182 4.73619586 9.89393939 5.1755898 9.89393939 5.73619586 9.89393939 6.25134737 9.77272727 6.61498374 9.56060606 7.23619586 9.1969697 7.38771101 8.62121212 7.53922616 8.12121212L7.59983222 7.86363636C7.59983222 7.86363636 8.19074131 5.45454545 8.29680192 5.13636364 8.29680192 5.12121212 8.29680192 5.10606061 8.29680192 5.10606061 7.4786201 5.09090909 7.23619586 5.09090909 7.16043828 5.07575758M10.4634686 9.84848485C10.0695292 9.84848485 9.91801404 9.84848485 9.44831707 9.86363636L9.43316556 9.83333333C9.4786201 9.65151515 9.52407465 9.48484848 9.55437768 9.3030303L9.61498374 9.06060606C9.70589283 8.68181818 9.78165041 8.24242424 9.79680192 8.10606061 9.81195344 8.03030303 9.82710495 7.81818182 9.59983222 7.81818182 9.50892313 7.81818182 9.40286253 7.86363636 9.29680192 7.90909091 9.23619586 8.10606061 9.13013525 8.66666667 9.06952919 8.93939394 8.94831707 9.48484848 8.94831707 9.54545455 8.88771101 9.81818182L8.85740798 9.84848485C8.44831707 9.84848485 8.29680192 9.84848485 7.82710495 9.86363636L7.81195344 9.81818182C7.88771101 9.5 7.96346859 9.16666667 8.03922616 8.84848485 8.23619586 7.96969697 8.28165041 7.63636364 8.34225647 7.1969697L8.3725595 7.16666667C8.82710495 7.10606061 8.94831707 7.09090909 9.44831707 6.98484848L9.49377162 7.03030303 9.41801404 7.3030303C9.49377162 7.25757576 9.58468071 7.21212121 9.66043828 7.16666667 9.90286253 7.04545455 10.1604383 7.01515152 10.3119534 7.01515152 10.5240746 7.01515152 10.7664989 7.07575758 10.8725595 7.33333333 10.9634686 7.56060606 10.9028625 7.83333333 10.7816504 8.39393939L10.7210443 8.66666667C10.5998322 9.27272727 10.5695292 9.39393939 10.5089231 9.8030303L10.4634686 9.84848485zM12.0846807 9.84848485C11.8422565 9.84848485 11.6907413 9.84848485 11.5392262 9.84848485 11.387711 9.84848485 11.2361959 9.86363636 11.0240746 9.86363636L11.0089231 9.84848485 10.9937716 9.83333333C11.0543777 9.60606061 11.0846807 9.51515152 11.1149837 9.43939394 11.1452868 9.36363636 11.1755898 9.27272727 11.2210443 9.04545455 11.2968019 8.74242424 11.3422565 8.53030303 11.3725595 8.33333333 11.4028625 8.15151515 11.418014 8 11.4483171 7.81818182L11.4634686 7.8030303 11.4786201 7.78787879C11.7210443 7.75757576 11.8725595 7.72727273 12.0240746 7.71212121 12.1755898 7.6969697 12.3422565 7.66666667 12.5846807 7.60606061L12.5998322 7.62121212 12.5998322 7.63636364C12.5543777 7.83333333 12.5089231 8.01515152 12.4634686 8.21212121 12.418014 8.40909091 12.3725595 8.59090909 12.327105 8.78787879 12.2361959 9.1969697 12.2058928 9.33333333 12.1755898 9.45454545 12.1604383 9.56060606 12.1452868 9.62121212 12.1149837 9.81818182L12.0998322 9.83333333 12.0846807 9.84848485zM14.6301353 8.43939394C14.5998322 8.54545455 14.5240746 8.92424242 14.387711 9.09090909 14.2968019 9.21212121 14.2058928 9.28787879 14.0846807 9.28787879 14.0543777 9.28787879 13.857408 9.28787879 13.857408 9 13.857408 8.84848485 13.887711 8.71212121 13.918014 8.54545455 14.0240746 8.07575758 14.1452868 7.6969697 14.4634686 7.6969697 14.7210443 7.66666667 14.7361959 7.96969697 14.6301353 8.43939394M15.6755898 8.46969697C15.8119534 7.86363636 15.7058928 7.57575758 15.5695292 7.39393939 15.357408 7.12121212 14.9937716 7.04545455 14.6149837 7.04545455 14.387711 7.04545455 13.8422565 7.06060606 13.418014 7.45454545 13.1149837 7.74242424 12.9634686 8.12121212 12.887711 8.48484848 12.7968019 8.86363636 12.7058928 9.53030303 13.327105 9.78787879 13.5240746 9.86363636 13.7968019 9.89393939 13.9786201 9.89393939 14.4331656 9.89393939 14.9028625 9.77272727 15.2513474 9.39393939 15.5089231 9.10606061 15.6301353 8.65151515 15.6755898 8.46969697M25.4331656 9.89393939C24.9483171 9.89393939 24.8119534 9.89393939 24.357408 9.90909091L24.327105 9.87878788C24.4483171 9.42424242 24.5695292 8.96969697 24.6755898 8.5 24.8119534 7.89393939 24.8422565 7.63636364 24.887711 7.28787879L24.918014 7.25757576C25.4028625 7.18181818 25.5240746 7.16666667 26.0240746 7.07575758L26.0392262 7.12121212C25.9483171 7.5 25.857408 7.87878788 25.7664989 8.25757576 25.5846807 9.04545455 25.5240746 9.45454545 25.4483171 9.86363636L25.4331656 9.89393939z"/>
      <path fill="#FFF" fill-rule="nonzero" d="M24.7058928 8.48484848C24.6755898 8.57575758 24.5846807 8.96969697 24.4634686 9.13636364 24.387711 9.25757576 24.1907413 9.31818182 24.0695292 9.31818182 24.0392262 9.31818182 23.8422565 9.31818182 23.8422565 9.03030303 23.8422565 8.89393939 23.8725595 8.74242424 23.9028625 8.57575758 24.0089231 8.12121212 24.1301353 7.72727273 24.4483171 7.72727273 24.7058928 7.72727273 24.827105 8.01515152 24.7058928 8.48484848M25.6604383 8.53030303C25.7968019 7.92424242 25.2361959 8.46969697 25.1452868 8.27272727 25.0089231 7.95454545 25.0846807 7.31818182 24.5392262 7.10606061 24.327105 7.03030303 23.827105 7.13636364 23.387711 7.51515152 23.0846807 7.8030303 22.9331656 8.18181818 22.857408 8.54545455 22.7664989 8.90909091 22.6755898 9.59090909 23.2968019 9.83333333 23.4937716 9.90909091 23.6755898 9.93939394 23.8422565 9.93939394 24.4634686 9.90909091 24.9483171 8.96969697 25.2968019 8.59090909 25.5846807 8.3030303 25.6301353 8.71212121 25.6604383 8.53030303M18.4028625 9.84848485C17.9937716 9.84848485 17.857408 9.84848485 17.4028625 9.86363636L17.387711 9.83333333C17.4331656 9.65151515 17.4786201 9.48484848 17.5089231 9.3030303L17.5695292 9.06060606C17.6604383 8.68181818 17.7361959 8.24242424 17.7513474 8.10606061 17.7664989 8.03030303 17.7816504 7.81818182 17.5543777 7.81818182 17.4634686 7.81818182 17.357408 7.86363636 17.2513474 7.90909091 17.1907413 8.10606061 17.0846807 8.66666667 17.0240746 8.93939394 16.9028625 9.48484848 16.9028625 9.54545455 16.857408 9.81818182L16.827105 9.84848485C16.418014 9.84848485 16.2664989 9.84848485 15.7968019 9.86363636L15.7816504 9.81818182C15.857408 9.5 15.9331656 9.16666667 16.0089231 8.84848485 16.2058928 7.96969697 16.2513474 7.63636364 16.3119534 7.1969697L16.3422565 7.16666667C16.7968019 7.10606061 16.918014 7.09090909 17.418014 6.98484848L17.4634686 7.03030303 17.387711 7.3030303C17.4634686 7.25757576 17.5543777 7.21212121 17.6301353 7.16666667 17.8725595 7.04545455 18.1301353 7.01515152 18.2664989 7.01515152 18.4786201 7.01515152 18.7210443 7.07575758 18.827105 7.33333333 18.918014 7.56060606 18.857408 7.83333333 18.7361959 8.39393939L18.6755898 8.66666667C18.5392262 9.27272727 18.5240746 9.39393939 18.4483171 9.8030303L18.4028625 9.84848485zM21.857408 5.06060606L21.5240746 5.06060606C20.6604383 5.07575758 20.3119534 5.06060606 20.1755898 5.04545455 20.1604383 5.10606061 20.1301353 5.22727273 20.1301353 5.22727273L19.827105 6.66666667C19.827105 6.66666667 19.0846807 9.71212121 19.0543777 9.86363636 19.7968019 9.84848485 20.1149837 9.84848485 20.2361959 9.86363636 20.2664989 9.72727273 20.4483171 8.86363636 20.4483171 8.86363636 20.4483171 8.86363636 20.5998322 8.24242424 20.5998322 8.21212121 20.5998322 8.21212121 20.6452868 8.15151515 20.6907413 8.12121212L20.7513474 8.12121212C21.4028625 8.12121212 22.1452868 8.12121212 22.7210443 7.6969697 23.1149837 7.40909091 23.3725595 6.96969697 23.4937716 6.45454545 23.5240746 6.33333333 23.5543777 6.18181818 23.5543777 6.01515152 23.5543777 5.81818182 23.5089231 5.62121212 23.4028625 5.46969697 23.1149837 5.07575758 22.5392262 5.07575758 21.857408 5.06060606M22.2968019 6.56060606C22.2210443 6.87878788 22.0240746 7.15151515 21.7513474 7.27272727 21.5392262 7.37878788 21.2664989 7.39393939 20.9937716 7.39393939L20.8119534 7.39393939 20.827105 7.31818182C20.827105 7.31818182 21.1604383 5.89393939 21.1604383 5.89393939L21.1755898 5.81818182 21.1755898 5.75757576 21.3119534 5.77272727C21.3119534 5.77272727 21.9937716 5.83333333 22.0089231 5.83333333 22.2664989 5.93939394 22.3725595 6.21212121 22.2968019 6.56060606M29.387711 7.07575758L29.3422565 7.03030303C28.8422565 7.13636364 28.7664989 7.15151515 28.3119534 7.21212121L28.2816504 7.24242424C28.2816504 7.24242424 28.2816504 7.25757576 28.2816504 7.25757576L28.2816504 7.25757576C27.9483171 8.03030303 27.9483171 7.86363636 27.6755898 8.48484848 27.6755898 8.45454545 27.6755898 8.43939394 27.6755898 8.40909091L27.6149837 7.07575758 27.5695292 7.03030303C27.0543777 7.13636364 27.0392262 7.15151515 26.5695292 7.21212121L26.5392262 7.24242424C26.5392262 7.25757576 26.5392262 7.27272727 26.5240746 7.28787879L26.5240746 7.28787879C26.5846807 7.59090909 26.5695292 7.53030303 26.6301353 8 26.6604383 8.24242424 26.6907413 8.46969697 26.7210443 8.71212121 26.7664989 9.10606061 26.7968019 9.28787879 26.857408 9.87878788 26.5392262 10.4090909 26.4634686 10.6212121 26.1452868 11.0757576L26.1604383 11.1212121C26.6301353 11.1060606 26.7361959 11.1060606 27.0846807 11.1060606L27.1604383 11.0151515C27.4028625 10.4848485 29.387711 7.07575758 29.387711 7.07575758M12.5240746 7.39393939C12.7968019 7.21212121 12.827105 6.95454545 12.5998322 6.83333333 12.3725595 6.6969697 11.9786201 6.74242424 11.7058928 6.92424242 11.4331656 7.10606061 11.4028625 7.36363636 11.6301353 7.5 11.857408 7.62121212 12.2513474 7.57575758 12.5240746 7.39393939"/>
      <path fill="#FFF" fill-rule="nonzero" d="M27.0998322,11.0757576 L26.7058928,11.7424242 C26.5846807,11.969697 26.357408,12.1363636 25.9937716,12.1363636 L25.3725595,12.1363636 L25.5543777,11.530303 L25.6755898,11.530303 C25.7361959,11.530303 25.7816504,11.530303 25.827105,11.5151515 C25.857408,11.5 25.887711,11.4848485 25.9028625,11.4393939 L26.1301353,11.0757576 L27.0998322,11.0757576 Z"/>
    </g>
  </g>
</svg>
