<svg xmlns="http://www.w3.org/2000/svg" viewBox="0 0 48 32"><g fill="none" fill-rule="evenodd"><rect width="47" height="31" x=".5" y=".5" fill="#FFF" stroke="#CBCBCB" stroke-opacity=".5" rx="2"/><path fill="#1A2070" d="M19.435 10l-5.053 11.995h-3.28l-2.484-9.574c0-.443-.354-.887-.708-1.064-.975-.442-2.04-.797-3.015-.975l.09-.382h5.23c.708 0 1.33.56 1.418 1.268l1.33 6.916L16.155 10h3.28zm12.766 8.095c0-3.192-4.344-3.369-4.344-4.699 0-.443.442-.887 1.33-.975 1.062-.088 2.127.088 3.014.532l.531-2.571c-.886-.355-1.95-.532-2.925-.532-3.015 0-5.23 1.596-5.23 3.989 0 1.685 1.506 2.66 2.748 3.281 1.24.619 1.595.975 1.595 1.507 0 .797-.975 1.152-1.86 1.152-1.066 0-2.218-.266-3.193-.71l-.532 2.66c1.063.444 2.305.621 3.457.621 3.281-.177 5.41-1.773 5.41-4.255zm8.067 3.9h2.836L40.622 10h-2.659c-.62 0-1.065.382-1.33.915l-4.61 11.08h3.28l.621-1.773h3.99l.354 1.773zm-3.458-4.256l1.597-4.52.974 4.52h-2.57zM23.867 10l-2.57 11.995h-3.104L20.764 10h3.103z"/></g></svg>